<svg id="Layer_1" xmlns="http://www.w3.org/2000/svg" viewBox="0 0 1047.8 171.1"><style>.svg-logo{fill:#28639e}.svg-logo-1{fill:#fff}</style><path class="svg-logo" d="M970.2 7.3h77.6v30h-42.1v9.2h29.8v26.8h-29.8v9.2h42.1v30h-77.6V7.3zM893.9 108c-8.8-4.4-15.4-10.7-20.2-18.9s-7-18-7-29.2c0-11.4 2.4-21.1 7-29.2 4.8-8.3 11.4-14.5 20.2-18.9s18.9-6.6 30.7-6.6c7.7 0 14.5.7 20.4 2 5.9 1.3 11.4 3.5 16.4 6.2V47c-4.2-3.1-9.2-5.5-14.5-7-5.5-1.5-11.8-2-18.9-2-7.7 0-14 1.8-18.4 5.7-4.4 3.7-6.6 9.2-6.6 16.4s2.2 12.5 6.8 16.4c4.4 3.7 10.7 5.7 18.2 5.7 7 0 13.2-.7 18.9-2.4 5.5-1.5 10.8-3.9 15.8-7.2V106c-10.1 5.9-22.8 8.6-37.9 8.6-11.7-.2-22-2.4-30.9-6.6zM762.9 7.3h31.2L825.4 56V7.3h34v104.9h-31.2L797 63.3v48.9h-34V7.3zm-58.4 60.5l-7.7-24.1-7.8 24.1h15.5zM679.8 7.3h33.6l41.9 104.9H719l-6.8-18.4H681l-6.8 18.4H638L679.8 7.3zm-142 0h37.1l21.5 58.8 21.5-58.8H655l-41.9 104.9h-33.6L537.8 7.3zm-50.4 71.9c13 0 19.5-6.6 19.5-20 0-6.1-1.7-10.8-5.1-14-3.3-3.3-8.3-5-14.3-5h-7v39h6.9zM445 7.3h40.1c11.6 0 21.7 2 30.5 6.2s15.4 10.3 20.2 18c4.8 7.7 7.2 17.1 7.2 27.6 0 17.5-5.1 30.5-15.4 39.5S503.2 112 485.1 112H445V7.3zm-58.4 60.5l-7.9-24.1-7.7 24.1h15.6zM361.9 7.3h33.6l41.9 104.9H401l-6.8-18.4H363l-6.8 18.4H320L361.9 7.3z"/><path class="svg-logo-1" d="M320 134.8h10.5l8.8 18.6 9-18.6h10.5v35.1h-11v-13l-6.5 13h-3.8l-6.4-13v13H320z"/><path class="svg-logo" d="M650.4 134.8h7.6l14.5 22.7v-22.7h7.7v35.1h-7.3l-14.7-22.7v22.7h-7.8z"/><path class="svg-logo-1" d="M749.3 151.4c3.1 0 4.6-1.3 4.6-3.9s-1.5-3.9-4.6-3.9h-2.6v7.7h2.6zm-14.5-16.6h16.9c4.4 0 7.7 1.1 10.3 3.3 2.6 2.2 3.9 5.3 3.9 9.6s-1.3 7.4-3.9 9.6c-2.6 2.2-6.1 3.3-10.3 3.3h-5v9.6h-11.9v-35.4z"/><path class="svg-logo" d="M697.5 163.5c3.5 0 6.2-.9 8.3-2.9 1.8-2 2.9-4.8 2.9-8.3 0-2-.4-4-1.3-5.7-.9-1.7-2-2.9-3.7-3.9s-3.5-1.5-5.7-1.5h-5v22.4h4.4v-.1zm-12.1-28.7h12.1c3.9 0 7.2.7 9.9 2 2.8 1.5 5 3.5 6.6 6.1 1.5 2.6 2.4 5.7 2.4 9.2 0 5.9-1.7 10.3-5.1 13.2-3.3 2.9-8.1 4.4-14.2 4.4h-11.8l.1-34.9zM633.5 156.2l-5-13.4-5 13.4h10zm-8.6-21.4h7.5l14 35.1h-7.7l-2.9-7.7h-14l-2.9 7.7H611l13.9-35.1z"/><path class="svg-logo-1" d="M567.4 134.8h26.1v10h-14.2v3.1h10v8.8h-10v3.1h14.2v10.1h-26.1zM541.1 168.5c-2.9-1.5-5.1-3.5-6.8-6.2-1.7-2.8-2.4-6.1-2.4-9.7 0-3.9.7-7 2.4-9.7 1.7-2.8 3.9-4.8 6.8-6.2s6.4-2.2 10.3-2.2c2.6 0 5 .2 6.8.7 2 .4 3.7 1.1 5.5 2v11.2c-1.5-1.1-3.1-1.8-5-2.4-1.8-.6-3.9-.7-6.2-.7-2.6 0-4.6.7-6.1 2s-2.2 3.1-2.2 5.5c0 2.6.6 4.6 1.8 5.9 1.3 1.3 3.3 2 6.1 2 .9 0 1.8-.2 2.6-.4V157h-3.9v-6.8h14.3v18c-3.5 2-7.9 2.9-13.6 2.9-4-.4-7.5-1.2-10.4-2.6zM516.3 155.1l-2.6-8.1-2.6 8.1h5.2zm-8.3-20.3h11.2l14 35.1h-12.1l-2.2-6.1h-10.5l-2.2 6.1h-12.1l13.9-35.1zM468.7 168.5c-2.9-1.5-5.1-3.5-6.8-6.2-1.7-2.8-2.4-6.1-2.4-9.7 0-3.9.7-7 2.4-9.7 1.7-2.8 3.9-4.8 6.8-6.2s6.4-2.2 10.3-2.2c2.6 0 5 .2 6.8.7 2 .4 3.7 1.1 5.5 2v11.2c-1.5-1.1-3.1-1.8-5-2.4-1.8-.6-3.9-.7-6.4-.7-2.6 0-4.6.7-6.1 2s-2.2 3.1-2.2 5.5c0 2.6.6 4.6 1.8 5.9 1.3 1.3 3.3 2 6.1 2 .9 0 1.8-.2 2.6-.4V157h-3.9v-6.8h14.3v18c-3.5 2-7.9 2.9-13.6 2.9-4-.4-7.3-1.2-10.2-2.6z"/><path class="svg-logo-1" d="M440.8 144.8h-9v-10h29.7v10h-9v25.1h-11.7z"/><path class="svg-logo-1" d="M416.1 151.4c3.1 0 4.6-1.3 4.6-3.9s-1.5-3.9-4.6-3.9h-2.6v7.7h2.6zm-14.3-16.6h16.9c4.4 0 7.7 1.1 10.3 3.3 2.6 2.2 3.9 5.3 3.9 9.6 0 2.6-.6 4.8-1.5 6.6-1.1 1.8-2.6 3.3-4.4 4.2l5.5 11.4h-11.9l-4.6-9.6h-2.2v9.6H402v-35.1h-.2zM385.3 157.5c1.3-1.3 2-2.9 2-5.1s-.7-3.9-2-5.1c-1.3-1.3-2.9-1.8-5-1.8s-3.7.6-5 1.8c-1.5 1.3-2 2.9-2 5.1s.7 3.9 2 5.1c1.3 1.3 2.9 1.8 5 1.8 2 .2 3.7-.6 5-1.8zm-14.7 10.8c-2.9-1.5-5.1-3.7-6.8-6.4-1.7-2.8-2.6-5.9-2.6-9.6 0-3.5.9-6.8 2.6-9.6 1.7-2.8 3.9-5 6.8-6.4 2.9-1.5 6.1-2.4 9.7-2.4 3.5 0 6.8.7 9.6 2.4 2.9 1.5 5.1 3.7 6.8 6.4 1.7 2.8 2.6 5.9 2.6 9.6 0 3.5-.9 6.8-2.6 9.6-1.7 2.8-3.9 5-6.8 6.4-2.9 1.5-6.1 2.4-9.6 2.4-3.7 0-6.8-.9-9.7-2.4zM782.2 151.4c3.1 0 4.6-1.3 4.6-3.9s-1.5-3.9-4.6-3.9h-2.8v7.7h2.8zm-14.3-16.6h16.9c4.4 0 7.7 1.1 10.3 3.3 2.6 2.2 3.9 5.3 3.9 9.6 0 2.6-.6 4.8-1.5 6.6-1.1 1.8-2.6 3.3-4.4 4.2l5.5 11.4h-11.9l-4.6-9.6h-2.6v9.6h-11.8v-35.1h.2zM823.6 157.5c1.3-1.3 2-2.9 2-5.1s-.7-3.9-2-5.1c-1.3-1.3-2.9-1.8-5-1.8s-3.7.6-5 1.8-2 2.9-2 5.1.7 3.9 2 5.1c1.3 1.3 2.9 1.8 5 1.8s3.7-.6 5-1.8zm-14.7 10.8c-2.9-1.5-5.1-3.7-6.8-6.4-1.7-2.8-2.6-5.9-2.6-9.6 0-3.5.9-6.8 2.6-9.6s3.9-5 6.8-6.4c2.9-1.5 6.1-2.4 9.7-2.4 3.5 0 6.8.7 9.7 2.4 2.9 1.5 5.1 3.7 6.8 6.4 1.7 2.8 2.6 5.9 2.6 9.6 0 3.5-.9 6.8-2.6 9.6s-3.9 5-6.8 6.4c-2.9 1.5-6.1 2.4-9.7 2.4-3.7 0-6.8-.9-9.7-2.4zM845.6 144.8h-9v-10h29.8v10h-9v25.1h-11.8zM868.2 134.8h25.9v10H880v3.1h9.9v8.8H880v3.1h14.1v10.1h-25.9zM903.9 168.5c-2.9-1.5-5.1-3.5-6.8-6.2-1.7-2.8-2.4-6.1-2.4-9.7 0-3.9.7-7 2.4-9.7 1.7-2.8 3.9-4.8 6.8-6.2 2.9-1.5 6.4-2.2 10.3-2.2 2.6 0 4.8.2 6.8.7 2 .4 3.9 1.1 5.5 2v11.2c-1.5-1.1-3.1-1.8-5-2.4-1.8-.6-3.9-.7-6.4-.7-2.6 0-4.6.6-6.1 1.8s-2.2 3.1-2.2 5.5.7 4.2 2.2 5.5c1.5 1.3 3.5 1.8 6.1 1.8 2.4 0 4.4-.2 6.2-.7 1.8-.6 3.7-1.3 5.3-2.4V168c-3.3 2-7.5 2.9-12.7 2.9-3.6-.2-7.1-1-10-2.4zM936.4 144.8h-9v-10h29.8v10h-8.9v25.1h-11.9zM959 134.8h11.9v35.1H959zM997.4 157.5c1.3-1.3 2-2.9 2-5.1s-.7-3.9-2-5.1c-1.3-1.3-2.9-1.8-5-1.8s-3.7.6-5 1.8-2 2.9-2 5.1.7 3.9 2 5.1c1.3 1.3 2.9 1.8 5 1.8 2.1.2 3.7-.6 5-1.8zm-14.7 10.8c-2.9-1.5-5.1-3.7-6.8-6.4-1.7-2.8-2.6-5.9-2.6-9.6 0-3.5.9-6.8 2.6-9.6s3.9-5 6.8-6.4c2.9-1.5 6.1-2.4 9.7-2.4 3.5 0 6.8.7 9.6 2.4 2.9 1.5 5.1 3.7 6.8 6.4 1.7 2.8 2.6 5.9 2.6 9.6 0 3.5-.9 6.8-2.6 9.6s-3.9 5-6.8 6.4c-2.9 1.5-6.1 2.4-9.6 2.4-3.6 0-6.8-.9-9.7-2.4zM1013.9 134.8h10.5l10.5 16.2v-16.2h11.4v35.1h-10.5l-10.5-16.5v16.5h-11.4zM261.7 0h4v171.1h-4z"/><g><path class="svg-logo-1" d="M25.4 107.3h20.3l25.4 63.4H49l-4-11.1H26.1l-4.1 11H0l25.4-63.3zm14.8 36.5l-4.7-14.6-4.7 14.6h9.4zM73.3 107.3h18.9l16 33.5 16-33.5h18.9v63.4h-19.9v-23.5l-11.7 23.5h-6.9l-11.7-23.5v23.5H73.3v-63.4zM148 107.3h30.5c7.9 0 14.1 2 18.7 5.9 4.6 3.9 6.9 9.6 6.9 17.1 0 7.5-2.3 13.2-6.9 17.1-4.6 3.9-10.8 5.9-18.7 5.9h-9v17.3H148v-63.3zm26.1 30c5.5 0 8.2-2.3 8.2-7s-2.8-7-8.2-7h-4.6v14h4.6z"/><path class="svg-logo" d="M16.3 112.4l4.7-11.7h29.1l16.8 41.8v-41.8h29.5l11.9 25 11.9-25h58.1c1.8 0 3.5.1 5.2.3v-5.3h11.2L159 60l-23.8-23.8L99.5.4 4.2 95.7l12.1.3v16.4z"/></g></svg>