<?xml version="1.0" encoding="utf-8"?>
<!-- Generator: Adobe Illustrator 21.0.2, SVG Export Plug-In . SVG Version: 6.00 Build 0)  -->
<svg version="1.1" id="Capa_1" xmlns="http://www.w3.org/2000/svg" xmlns:xlink="http://www.w3.org/1999/xlink" x="0px" y="0px"
	 viewBox="0 0 512 512" style="enable-background:new 0 0 512 512;" xml:space="preserve">
<style type="text/css">
	.st0{fill:#FFFFFF;}
</style>
<g>
	<path class="st0" d="M503.5,136.5H486c-1.9-26.5-12.4-50.6-28.9-69.6l9.7-9.7c3.3-3.3,3.3-8.7,0-12.1s-8.7-3.3-12.1,0l-9.7,9.7
		c-18.9-16.4-43.1-27-69.6-28.9V8.5c0-4.7-3.8-8.5-8.5-8.5s-8.5,3.8-8.5,8.5V26c-26.5,1.9-50.6,12.4-69.6,28.9l-9.7-9.7
		c-3.3-3.3-8.7-3.3-12.1,0s-3.3,8.7,0,12.1l9.7,9.7c-16.4,18.9-27,43.1-28.9,69.6h-17.5c-4.7,0-8.5,3.8-8.5,8.5
		c0,4.7,3.8,8.5,8.5,8.5h17.5c1.9,26.5,12.4,50.6,28.9,69.6l-9.7,9.7c-1,1-1.6,2.1-2,3.3c-9.9-9-20.9-16.7-32.9-22.9l6-13.6
		c1.9-4.3,0-9.4-4.3-11.3c-4.3-1.9-9.3,0-11.3,4.3l-6.1,13.6c-16.9-6.5-35.2-10.1-54.4-10.1c-16.6,0-32.6,2.7-47.6,7.6l-4.2-10.7
		c-1.7-4.4-6.7-6.6-11-4.9c-4.4,1.7-6.6,6.6-4.9,11l4.2,10.8c-31.5,14.4-57.3,39-73.1,69.7l-13.6-6c-4.3-1.9-9.3,0-11.3,4.3
		c-1.9,4.3,0,9.4,4.3,11.3l13.6,6c-6.5,16.9-10.1,35.2-10.1,54.4c0,16.6,2.7,32.6,7.6,47.6l-10.7,4.2c-4.4,1.7-6.6,6.6-4.9,11
		c1.3,3.4,4.5,5.4,8,5.4c1,0,2.1-0.2,3.1-0.6l10.8-4.2c14.4,31.5,39,57.3,69.7,73.1l-6,13.6c-1.9,4.3,0,9.4,4.3,11.3
		c1.1,0.5,2.3,0.7,3.5,0.7c3.3,0,6.4-1.9,7.8-5.1l6.1-13.6c16.9,6.5,35.2,10.1,54.4,10.1c16.6,0,32.6-2.7,47.6-7.6l4.2,10.7
		c1.3,3.4,4.5,5.4,8,5.4c1,0,2.1-0.2,3.1-0.6c4.4-1.7,6.6-6.6,4.9-11l-4.2-10.8c31.5-14.4,57.3-39,73.1-69.7l13.6,6
		c1.1,0.5,2.3,0.7,3.5,0.7c3.3,0,6.4-1.9,7.8-5.1c1.9-4.3,0-9.4-4.3-11.3l-13.6-6c6.5-16.9,10.1-35.2,10.1-54.4
		c0-16.6-2.7-32.6-7.6-47.6l10.7-4.2c4.4-1.7,6.6-6.6,4.9-11c-1.7-4.4-6.6-6.6-11-4.9l-10.8,4.2c-6.6-14.5-15.4-27.8-26-39.4
		c1.2-0.4,2.3-1,3.3-2l9.7-9.7c18.9,16.4,43.1,27,69.6,28.9v17.5c0,4.7,3.8,8.5,8.5,8.5s8.5-3.8,8.5-8.5v-17.5
		c26.5-1.9,50.6-12.4,69.6-28.9l10.2,10.2c1.7,1.7,3.8,2.5,6,2.5s4.4-0.8,6-2.5c3.3-3.3,3.3-8.7,0-12.1l-10.2-10.2
		c16.4-18.9,27-43.1,28.9-69.6h17.5c4.7,0,8.5-3.8,8.5-8.5C512,140.3,508.2,136.5,503.5,136.5z M162.1,213.3
		c16.7,0,32.7,3.2,47.5,8.7l-41.9,94.3c-1.8-0.3-3.7-0.6-5.6-0.6c-18.8,0-34.1,15.3-34.1,34.1c0,1.4,0.2,2.6,0.4,4l-96.3,37.5
		c-4.2-13.1-6.5-27-6.5-41.4C25.6,274.6,86.9,213.3,162.1,213.3z M146.3,356.1C146.3,356.1,146.3,356.1,146.3,356.1
		c0-0.1,0-0.1,0-0.1c-0.7-1.9-1.2-4-1.2-6.1c0-9.4,7.7-17.1,17.1-17.1c2.4,0,4.6,0.5,6.7,1.4c0.1,0,0.1,0.1,0.2,0.1c0,0,0.1,0,0.1,0
		c5.9,2.7,10.1,8.6,10.1,15.5c0,9.4-7.7,17.1-17.1,17.1C154.9,366.9,148.8,362.4,146.3,356.1z M38.4,407.2l96.1-37.4
		c6.2,8.6,16.2,14.2,27.6,14.2c1.4,0,2.6-0.2,4-0.4l37.5,96.3c-13.1,4.2-27,6.5-41.4,6.5C107.3,486.4,60.1,453.9,38.4,407.2z
		 M219.4,473.6L182,377.5c8.6-6.2,14.2-16.2,14.2-27.6c0-10.8-5.1-20.3-13-26.6l41.9-94.4c43.6,22.8,73.4,68.4,73.4,121
		C298.7,404.7,266.1,451.9,219.4,473.6z M366.9,247.5c-56.5,0-102.4-45.9-102.4-102.4S310.5,42.7,366.9,42.7s102.4,45.9,102.4,102.4
		S423.4,247.5,366.9,247.5z"/>
	<path class="st0" d="M366.9,110.9c-18.8,0-34.1,15.3-34.1,34.1s15.3,34.1,34.1,34.1c18.8,0,34.1-15.3,34.1-34.1
		S385.8,110.9,366.9,110.9z M366.9,162.1c-9.4,0-17.1-7.7-17.1-17.1c0-9.4,7.7-17.1,17.1-17.1c9.4,0,17.1,7.7,17.1,17.1
		S376.3,162.1,366.9,162.1z"/>
</g>
</svg>
