<?xml version="1.0" encoding="utf-8"?>
<!-- Generator: Adobe Illustrator 21.0.2, SVG Export Plug-In . SVG Version: 6.00 Build 0)  -->
<svg version="1.1" id="Capa_1" xmlns="http://www.w3.org/2000/svg" xmlns:xlink="http://www.w3.org/1999/xlink" x="0px" y="0px"
	 viewBox="0 0 512 512" style="enable-background:new 0 0 512 512;" xml:space="preserve">
<style type="text/css">
	.st0{fill:#FFFFFF;}
</style>
<path class="st0" d="M507.6,233.6l-76.2-70.7V47.1h-87.7v34.4L256,0L4.4,233.6c-3.5,3.3-3.8,8.9-0.5,12.4s8.8,3.7,12.4,0.5l29.1-27
	V512h140.4h140.4h140.4V219.4l29.1,27c1.7,1.6,3.8,2.3,6,2.3c2.4,0,4.7-0.9,6.4-2.8C511.4,242.5,511.1,236.9,507.6,233.6z
	 M361.3,64.6h52.6v82l-52.6-48.9V64.6z M203.4,494.5V309.7c0-4.5,3.7-8.2,8.2-8.2h88.8c4.5,0,8.2,3.7,8.2,8.2v184.8H203.4
	L203.4,494.5z M449,494.5H326.2V309.7c0-14.2-11.6-25.8-25.8-25.8h-88.8c-14.2,0-25.8,11.6-25.8,25.8v184.8H63V203.2L256,23.9
	l125.3,116.3l50.2,46.6l0,0l17.5,16.3V494.5z"/>
</svg>
