<?xml version="1.0" encoding="utf-8"?>
<!-- Generator: Adobe Illustrator 21.0.2, SVG Export Plug-In . SVG Version: 6.00 Build 0)  -->
<svg version="1.1" id="Capa_1" xmlns="http://www.w3.org/2000/svg" xmlns:xlink="http://www.w3.org/1999/xlink" x="0px" y="0px"
	 viewBox="0 0 512 512" style="enable-background:new 0 0 512 512;" xml:space="preserve">
<style type="text/css">
	.st0{fill:#FFFFFF;}
</style>
<g>
	<path class="st0" d="M307.2,136.5c0-28.2-23-51.2-51.2-51.2s-51.2,23-51.2,51.2v42.7h-42.7v162.1h187.7V179.2h-42.7v-42.7H307.2z
		 M221.9,136.5c0-18.8,15.3-34.1,34.1-34.1s34.1,15.3,34.1,34.1v42.7h-68.3L221.9,136.5L221.9,136.5z M332.8,196.3v128H179.2v-128
		h25.6h102.4L332.8,196.3L332.8,196.3z"/>
	<path class="st0" d="M247.5,280.4v18.3c0,4.7,3.8,8.5,8.5,8.5c4.7,0,8.5-3.8,8.5-8.5v-18.3c14.7-3.8,25.6-17.1,25.6-32.9
		c0-18.8-15.3-34.1-34.1-34.1s-34.1,15.3-34.1,34.1C221.9,263.3,232.8,276.6,247.5,280.4z M256,230.4c9.4,0,17.1,7.7,17.1,17.1
		s-7.7,17.1-17.1,17.1s-17.1-7.7-17.1-17.1C238.9,238.1,246.6,230.4,256,230.4z"/>
	<path class="st0" d="M256,0C129,0,25.6,103.4,25.6,230.4c0,120.4,92.9,219.5,210.7,229.5l-37.5,37.5c-3.3,3.3-3.3,8.7,0,12.1
		c1.7,1.7,3.8,2.5,6,2.5s4.4-0.8,6-2.5l51.2-51.2c0.8-0.8,1.4-1.7,1.9-2.8c0.9-2.1,0.9-4.4,0-6.5c-0.4-1-1.1-2-1.9-2.8L210.8,395
		c-3.3-3.3-8.7-3.3-12.1,0s-3.3,8.7,0,12.1l35.5,35.5C126.8,431.7,42.7,340.7,42.7,230.4c0-117.6,95.7-213.3,213.3-213.3
		s213.3,95.7,213.3,213.3c0,56.6-21.9,109.9-61.8,150.1c-3.3,3.4-3.3,8.8,0.1,12.1c3.3,3.3,8.7,3.3,12.1-0.1
		c43-43.4,66.7-101,66.7-162.1C486.4,103.4,383,0,256,0z"/>
</g>
</svg>
