<?xml version="1.0" encoding="utf-8"?>
<!-- Generator: Adobe Illustrator 21.0.2, SVG Export Plug-In . SVG Version: 6.00 Build 0)  -->
<svg version="1.1" id="Capa_1" xmlns="http://www.w3.org/2000/svg" xmlns:xlink="http://www.w3.org/1999/xlink" x="0px" y="0px"
	 viewBox="0 0 512 512" style="enable-background:new 0 0 512 512;" xml:space="preserve">
<style type="text/css">
	.st0{fill:#FFFFFF;}
</style>
<g>
	<path class="st0" d="M332.1,0H55.5v512h401.1V124.5L332.1,0z M337.1,29.1l90.3,90.3h-90.3L337.1,29.1L337.1,29.1z M72.5,494.9V17.1
		H320v119.5h119.5V495h-367V494.9z"/>
	<path class="st0" d="M140.8,145.1h76.8c4.7,0,8.5-3.8,8.5-8.5s-3.8-8.5-8.5-8.5h-76.8c-4.7,0-8.5,3.8-8.5,8.5
		S136.1,145.1,140.8,145.1z"/>
	<path class="st0" d="M140.8,213.3h42.7c4.7,0,8.5-3.8,8.5-8.5s-3.8-8.5-8.5-8.5h-42.7c-4.7,0-8.5,3.8-8.5,8.5
		S136.1,213.3,140.8,213.3z"/>
	<path class="st0" d="M268.8,213.3h59.7c4.7,0,8.5-3.8,8.5-8.5s-3.8-8.5-8.5-8.5h-59.7c-4.7,0-8.5,3.8-8.5,8.5
		S264.1,213.3,268.8,213.3z"/>
	<path class="st0" d="M220.1,198.8c-1.6,1.5-2.5,3.7-2.5,6c0,2.2,0.9,4.4,2.5,6.1c1.6,1.5,3.8,2.5,6.1,2.5s4.4-0.9,6.1-2.6
		c1.5-1.5,2.5-3.8,2.5-6s-0.9-4.4-2.5-6.1C228.9,195.6,223.2,195.6,220.1,198.8z"/>
	<path class="st0" d="M371.2,213.3c2.2,0,4.4-0.9,6.1-2.5c1.5-1.6,2.5-3.8,2.5-6.1c0-2.2-0.9-4.4-2.5-6.1c-3.2-3.2-8.9-3.2-12.1,0
		c-1.5,1.6-2.5,3.8-2.5,6.1c0,2.2,0.9,4.4,2.5,6.1C366.8,212.4,369,213.3,371.2,213.3z"/>
	<path class="st0" d="M243.2,264.5h-59.7c-4.7,0-8.5,3.8-8.5,8.5s3.8,8.5,8.5,8.5h59.7c4.7,0,8.5-3.8,8.5-8.5
		S247.9,264.5,243.2,264.5z"/>
	<path class="st0" d="M140.8,281.6c2.2,0,4.4-0.9,6.1-2.5c1.6-1.6,2.5-3.8,2.5-6.1c0-2.2-0.9-4.4-2.5-6.1c-3.2-3.2-8.9-3.2-12.1,0
		c-1.6,1.6-2.5,3.7-2.5,6.1c0,2.2,0.9,4.4,2.5,6.1C136.4,280.7,138.6,281.6,140.8,281.6z"/>
	<path class="st0" d="M167.6,342.7c-18.7,9.7-25,28.3-27.3,47.6c-3.5-3-7.1-5.9-10.6-8.9c-8.4-7-20.5,5-12.1,12.1
		c8,6.7,16,13.4,23.9,20.1c5.6,4.7,14.3,1.7,14.6-6c0.6-18.5,1.5-40.5,20-50.1C186,352.4,177.4,337.7,167.6,342.7z"/>
	<path class="st0" d="M224.4,376.8c-11.8,2.7-25.3,17.8-33.6,0.9c-4.9-9.8-19.6-1.2-14.7,8.6c4.4,9,12.8,15.2,22.8,16.5
		c5.1,0.6,9.7-0.1,14.4-1.9c3.5-1.4,16.5-11.2,19.3-6.1c5.4,9.6,20.1,1,14.7-8.6C242.7,377.9,233.5,374.7,224.4,376.8z"/>
	<path class="st0" d="M398.9,294.5c-2-0.7-2.9-2.2-3.2-3c-0.3-0.8-0.8-2.5,0.1-4.4c4.1-8.7,2.4-18.8-4.4-25.6s-16.9-8.6-25.6-4.4
		c-1.9,0.9-3.6,0.5-4.4,0.1c-0.8-0.3-2.3-1.2-3-3.2c-3.2-9.1-11.6-15-21.2-15s-18,5.9-21.2,15c-0.7,2-2.2,2.9-3,3.2
		s-2.5,0.8-4.4-0.1c-8.7-4.1-18.8-2.4-25.6,4.4c-6.8,6.8-8.6,16.9-4.4,25.6c0.9,1.9,0.5,3.6,0.1,4.4c-0.3,0.8-1.2,2.3-3.2,3
		c-9.1,3.2-15,11.6-15,21.2s5.9,18,15,21.2c2,0.7,2.9,2.2,3.2,3c0.3,0.8,0.8,2.5-0.1,4.4c-4.1,8.7-2.4,18.8,4.4,25.6
		c3.3,3.3,7.4,5.4,11.6,6.2v105.1l42.7-42.7l42.7,42.7v-105c4.3-0.8,8.3-2.9,11.6-6.2c6.8-6.8,8.6-16.9,4.4-25.6
		c-0.9-1.9-0.5-3.6-0.1-4.4c0.3-0.8,1.2-2.3,3.2-3c9.1-3.2,15-11.6,15-21.2S408,297.7,398.9,294.5z M337.1,414.6l-25.6,25.6V374
		c0.1,0,0.2,0,0.2,0c0.4,0.1,0.8,0.2,1.1,0.3c0.4,0.2,1,0.5,1.6,1s1.1,1.2,1.5,2.2c3.2,9.1,11.6,15,21.2,15s18-5.9,21.2-15
		c0.3-1,0.9-1.7,1.5-2.2s1.2-0.8,1.6-1c0.3-0.1,0.7-0.2,1.1-0.3c0.1,0,0.1,0,0.2,0v66.2L337.1,414.6z M393.2,320.9
		c-6,2.1-10.8,6.7-13.3,12.6c-2.4,5.9-2.3,12.6,0.5,18.3c1.5,3.1-0.2,5.4-1.1,6.2c-0.7,0.7-2.4,1.9-4.8,1.5l-1.9-0.6
		c-0.8-0.3-1.6-0.5-2.4-0.8c-0.6-0.2-1.2-0.4-1.8-0.6c-0.8-0.2-1.7-0.2-2.6-0.3c-0.7-0.1-1.4-0.2-2.1-0.2c-0.8,0-1.6,0.1-2.5,0.2
		c-0.7,0.1-1.4,0.1-2.1,0.2c-1.5,0.3-3,0.7-4.4,1.3l0,0l0,0c-0.4,0.2-0.7,0.4-1.1,0.6c-1.1,0.5-2.1,1-3.1,1.7
		c-1.2,0.8-2.2,1.7-3.2,2.7c-0.1,0.1-0.3,0.2-0.4,0.3c-2.2,2.3-3.8,5-4.9,8c-1.1,3.3-4,3.6-5.1,3.6s-4-0.3-5.1-3.6
		c-1.1-3-2.7-5.7-4.9-8c-0.1-0.1-0.2-0.2-0.3-0.2c-1-1-2.1-2-3.3-2.8c-0.9-0.6-2-1.1-3-1.6c-0.4-0.2-0.8-0.5-1.2-0.6l0,0l0,0
		c-0.2-0.1-0.4-0.1-0.5-0.2c-1.2-0.5-2.5-0.9-3.8-1.1c-1-0.2-2.1-0.2-3.1-0.3c-0.4,0-0.8-0.1-1.2-0.1c0,0,0,0-0.1,0
		c-3.2,0-6.3,0.6-8.9,1.9l-1.9,0.6c-2.4,0.6-4.2-0.7-4.9-1.4c-0.8-0.8-2.6-3.1-1.1-6.2c2.7-5.8,2.9-12.4,0.5-18.3
		s-7.3-10.5-13.3-12.6c-3.3-1.1-3.6-4-3.6-5.1s0.3-4,3.6-5.1c6-2.1,10.8-6.7,13.3-12.6c2.4-5.9,2.3-12.6-0.5-18.3
		c-1.5-3.1,0.2-5.4,1.1-6.2c0.8-0.8,3-2.6,6.2-1.1c5.7,2.7,12.4,2.9,18.3,0.5s10.5-7.3,12.6-13.3c1.1-3.3,4-3.6,5.1-3.6
		s4,0.3,5.1,3.6c2.1,6,6.7,10.8,12.6,13.3s12.6,2.3,18.3-0.5c3.1-1.5,5.4,0.2,6.2,1.1c0.8,0.8,2.6,3.1,1.1,6.2
		c-2.7,5.8-2.9,12.4-0.5,18.3s7.3,10.5,13.3,12.6c3.3,1.1,3.6,4,3.6,5.1S396.5,319.7,393.2,320.9z"/>
</g>
</svg>
